<?xml version="1.0" standalone="no"?>
<!DOCTYPE svg PUBLIC "-//W3C//DTD SVG 20010904//EN"
 "http://www.w3.org/TR/2001/REC-SVG-20010904/DTD/svg10.dtd">
<svg version="1.0" xmlns="http://www.w3.org/2000/svg"
 width="32.000000pt" height="32.000000pt" viewBox="0 0 32.000000 32.000000"
 preserveAspectRatio="xMidYMid meet">

<g transform="translate(0.000000,32.000000) scale(0.100000,-0.100000)"
fill="#000000" stroke="none">
<path d="M0 310 c0 -12 24 -12 60 0 21 7 19 8 -17 9 -24 1 -43 -3 -43 -9z"/>
<path d="M113 306 c-6 -7 -34 -16 -62 -20 l-51 -7 0 -74 c0 -73 1 -75 25 -75
23 0 25 4 25 44 0 24 6 48 13 55 20 16 27 3 15 -28 -6 -14 -12 -65 -12 -113
l-2 -88 128 0 128 0 0 69 c0 38 -7 97 -16 130 -8 34 -12 66 -9 71 11 17 -5 50
-24 50 -10 0 -24 -7 -31 -15 -7 -8 -28 -15 -47 -15 -21 0 -36 6 -39 15 -7 18
-25 19 -41 1z"/>
<path d="M0 30 c0 -32 19 -40 39 -16 9 11 8 18 -4 30 -24 24 -35 20 -35 -14z"/>
</g>
</svg>
